# xmcd
# 
# Track frame offsets:
#     150
#     8502
#     20441
#     32990
#     45407
#     57769
#     70359
#     83274
#     94177
#     106576
#     118387
#     127761
#     138416
#     154331
#     167333
#     176505
# 
# Disc length: 2465
# 
# Revision: 3
# Processed by: cddbd v1.5.2PL0 Copyright (c) Steve Scherf et al.
# Submitted via: BonkEnc v1.0.6
# 
DISCID=bc099f10
DTITLE=Various Artist - Country Most Wanted [CD1)
DYEAR=2005
DGENRE=Country general
TTITLE0=Johnny Cash - Country Boy
TTITLE1=Frankie Laine - Cry Of The Wild Goose
TTITLE2=David Houston - My Elusive Dreams
TTITLE3=Ferlin Husky - The Letter You Promised To Write
TTITLE4=Bobby Bare - The Year That Clayton Delaney Died
TTITLE5=Billie Jo Spears - '57 Chevrolet
TTITLE6=Freddy Fender - Silver Wings
TTITLE7=Gene Autry - You Are My Shunsine
TTITLE8=Hank Locklin - Pinball Millionaire
TTITLE9=Jim Reeves - Your Old Love Letters
TTITLE10=Merle Haggard - The Legend Of Bonnie And Clyde
TTITLE11=Patsy Cline - I Can See An Angel Walkin'
TTITLE12=Skeeter Davis - I Honestly Love You
TTITLE13=Slim Whitman - Red Sails In The Sunset
TTITLE14=The Harden Trio - Tippytoeing
TTITLE15=Waylon Jennings - Abilene
EXTD=
EXTT0=
EXTT1=
EXTT2=
EXTT3=
EXTT4=
EXTT5=
EXTT6=
EXTT7=
EXTT8=
EXTT9=
EXTT10=
EXTT11=
EXTT12=
EXTT13=
EXTT14=
EXTT15=
PLAYORDER=
